<?xml version="1.0" encoding="UTF-8"?>
<svg width="26px" height="26px" viewBox="0 0 26 26" version="1.1" xmlns="http://www.w3.org/2000/svg" xmlns:xlink="http://www.w3.org/1999/xlink">
    <!-- Generator: Sketch 53.2 (72643) - https://sketchapp.com -->
    <title>shijian</title>
    <desc>Created with Sketch.</desc>
    <g id="实地生活会一期" stroke="none" stroke-width="1" fill="none" fill-rule="evenodd">
        <g id="收楼通知-修改时间01" transform="translate(-21.000000, -151.000000)" fill="#3890F9" fill-rule="nonzero">
            <g id="shijian" transform="translate(21.000000, 151.000000)">
                <path d="M13,0 C5.82053334,0 0,5.82053334 0,13 C0,20.1803333 5.82053334,26 13,26 C20.1794667,26 26,20.1803333 26,13 C26,5.82053334 20.1794667,0 13,0 Z M13,24.05 C6.8978,24.05 1.95,19.1022 1.95,13 C1.95,6.89693334 6.8978,1.95 13,1.95 C19.1030667,1.95 24.05,6.89693334 24.05,13 C24.05,19.1022 19.1030667,24.05 13,24.05 Z" id="Shape"></path>
                <path d="M21.2271429,12.9411224 L14.1885714,12.9411224 L14.1885714,5.60034928 C14.1885714,5.07011141 13.715,4.64285714 13.13,4.64285714 C12.545,4.64285714 12.0714286,5.07011141 12.0714286,5.60034928 L12.0714286,13.8986145 C12.0732744,14.1808706 12.2099507,14.4482143 12.4454097,14.6301346 C12.6808687,14.812055 12.9914671,14.8902848 13.2952857,14.8441912 C13.3500714,14.8527022 13.4048571,14.8561067 13.4615,14.8561067 L21.2271429,14.8561067 C21.8121429,14.8561067 22.2857143,14.4271502 22.2857143,13.8986145 C22.2857143,13.3683766 21.8121429,12.9411224 21.2271429,12.9411224 Z" id="Path"></path>
            </g>
        </g>
    </g>
</svg>